<?xml version="1.0" encoding="UTF-8" standalone="no"?>
<!-- Created with Inkscape (http://www.inkscape.org/) -->

<svg
   xmlns:dc="http://purl.org/dc/elements/1.1/"
   xmlns:cc="http://creativecommons.org/ns#"
   xmlns:rdf="http://www.w3.org/1999/02/22-rdf-syntax-ns#"
   xmlns:svg="http://www.w3.org/2000/svg"
   xmlns="http://www.w3.org/2000/svg"
   xmlns:sodipodi="http://sodipodi.sourceforge.net/DTD/sodipodi-0.dtd"
   xmlns:inkscape="http://www.inkscape.org/namespaces/inkscape"
   width="797.65179"
   height="512.37396"
   id="svg2"
   version="1.1"
   inkscape:version="0.91 r13725"
   sodipodi:docname="parallelepiped2.svg">
  <sodipodi:namedview
     id="base"
     pagecolor="#ffffff"
     bordercolor="#666666"
     borderopacity="1.0"
     inkscape:pageopacity="0.0"
     inkscape:pageshadow="2"
     inkscape:zoom="0.35"
     inkscape:cx="-321.2697"
     inkscape:cy="260.20505"
     inkscape:document-units="px"
     inkscape:current-layer="layer1"
     showgrid="false"
     inkscape:window-width="1293"
     inkscape:window-height="904"
     inkscape:window-x="314"
     inkscape:window-y="74"
     inkscape:window-maximized="0"
     fit-margin-top="0"
     fit-margin-left="0"
     fit-margin-right="0"
     fit-margin-bottom="0" />
  <defs
     id="defs4">
    <marker
       inkscape:stockid="Arrow1Lend"
       orient="auto"
       refY="0"
       refX="0"
       id="Arrow1Lend"
       style="overflow:visible">
      <path
         id="path3764"
         d="M 0,0 5,-5 -12.5,0 5,5 0,0 Z"
         style="fill-rule:evenodd;stroke:#000000;stroke-width:1pt"
         transform="matrix(-0.8,0,0,-0.8,-10,0)"
         inkscape:connector-curvature="0" />
    </marker>
    <marker
       inkscape:stockid="Arrow1Lstart"
       orient="auto"
       refY="0"
       refX="0"
       id="Arrow1Lstart"
       style="overflow:visible">
      <path
         id="path3761"
         d="M 0,0 5,-5 -12.5,0 5,5 0,0 Z"
         style="fill-rule:evenodd;stroke:#000000;stroke-width:1pt"
         transform="matrix(0.8,0,0,0.8,10,0)"
         inkscape:connector-curvature="0" />
    </marker>
  </defs>
  <metadata
     id="metadata7">
    <rdf:RDF>
      <cc:Work
         rdf:about="">
        <dc:format>image/svg+xml</dc:format>
        <dc:type
           rdf:resource="http://purl.org/dc/dcmitype/StillImage" />
        <dc:title></dc:title>
      </cc:Work>
    </rdf:RDF>
  </metadata>
  <g
     inkscape:label="Layer 1"
     inkscape:groupmode="layer"
     id="layer1"
     transform="translate(-123.09926,-280.19324)">
    <path
       style="opacity:1;fill:none;fill-opacity:1;stroke:#000000;stroke-width:4;stroke-linecap:butt;stroke-linejoin:miter;stroke-miterlimit:4;stroke-dasharray:none;stroke-opacity:1;marker-start:url(#Arrow1Lstart);marker-end:url(#Arrow1Lend)"
       d="M 595.2844,748.54975 256.65936,753.7417 507.81096,552.74313"
       id="path2985"
       inkscape:connector-curvature="0" />
    <path
       style="fill:none;stroke:#000000;stroke-width:4;stroke-linecap:butt;stroke-linejoin:miter;stroke-miterlimit:4;stroke-dasharray:none;stroke-opacity:1;marker-start:url(#Arrow1Lstart);marker-end:url(#Arrow1Lend)"
       d="M 261.81318,397.11273 255.39065,751.1817 321.49501,485.64103"
       id="path2987"
       inkscape:connector-curvature="0"
       sodipodi:nodetypes="ccc" />
    <path
       style="fill:none;stroke:#000000;stroke-width:3;stroke-linecap:butt;stroke-linejoin:miter;stroke-miterlimit:4;stroke-dasharray:12, 3;stroke-dashoffset:0;stroke-opacity:1;marker-end:"
       d="M 325.34627,480.54359 575.67553,284.06061 509.39942,553.04023"
       id="path4569"
       inkscape:connector-curvature="0"
       sodipodi:nodetypes="ccc" />
    <path
       style="fill:none;stroke:#000000;stroke-width:3;stroke-linecap:butt;stroke-linejoin:miter;stroke-miterlimit:4;stroke-dasharray:12, 3;stroke-dashoffset:0;stroke-opacity:1;marker-end:"
       d="m 513.22816,554.33155 337.33273,0.71899 -250.85347,188.7565 62.27569,-261.11768 -345.20826,3.56851"
       id="path4571"
       inkscape:connector-curvature="0"
       sodipodi:nodetypes="ccccc" />
    <path
       style="fill:none;stroke:#000000;stroke-width:3;stroke-linecap:butt;stroke-linejoin:miter;stroke-miterlimit:4;stroke-dasharray:12, 3;stroke-dashoffset:0;stroke-opacity:1;marker-end:"
       d="M 578.53274,284.06061 918.86042,283.2815 856.00063,553.10737"
       id="path4573"
       inkscape:connector-curvature="0"
       sodipodi:nodetypes="ccc" />
    <path
       style="fill:none;stroke:#000000;stroke-width:3;stroke-linecap:butt;stroke-linejoin:miter;stroke-miterlimit:4;stroke-dasharray:12, 3;stroke-dashoffset:0;stroke-opacity:1;marker-end:"
       d="M 656.26876,485.54652 916.59752,285.81893"
       id="path4575"
       inkscape:connector-curvature="0"
       sodipodi:nodetypes="cc" />
    <g
       id="g4595"
       transform="translate(302.85714,434.28571)">
      <g
         id="content"
         transform="matrix(1.0629921,0,0,-1.0629921,-186.02362,789.27165)"
         xml:space="preserve"
         stroke-miterlimit="10.433"
         fill-rule="even-odd"
         font-style="normal"
         font-variant="normal"
         font-weight="normal"
         font-stretch="normal"
         font-size-adjust="none"
         letter-spacing="normal"
         word-spacing="normal"
         style="font-style:normal;font-variant:normal;font-weight:normal;font-stretch:normal;letter-spacing:normal;word-spacing:normal;text-anchor:start;fill:none;stroke:#000000;stroke-linecap:butt;stroke-linejoin:miter;stroke-miterlimit:10.43299961;stroke-dasharray:none;stroke-dashoffset:0;stroke-opacity:1"><path
           d="m 481.75,435.64 -0.07,-0.06 -0.07,-0.07 -0.08,-0.07 -0.08,-0.07 -0.09,-0.08 -0.09,-0.08 -0.09,-0.09 -0.09,-0.09 -0.1,-0.09 -0.09,-0.09 -0.2,-0.19 -0.19,-0.19 -0.19,-0.21 -0.09,-0.1 -0.09,-0.1 -0.09,-0.1 -0.08,-0.11 -0.08,-0.1 -0.08,-0.1 -0.07,-0.1 -0.06,-0.1 -0.06,-0.1 -0.05,-0.1 -0.05,-0.1 -0.04,-0.09 -0.03,-0.1 -0.02,-0.09 -0.02,-0.09 0,-0.08 c 0,-0.5 0.5,-1 1,-1 0.44,0 0.69,0.35 0.94,0.65 0.6,0.75 1.74,2.14 3.94,3.24 0.35,0.2 0.84,0.45 0.84,1.05 0,0.49 -0.34,0.74 -0.69,0.99 -1.1,0.75 -1.65,1.64 -2.05,2.84 -0.1,0.45 -0.3,1.1 -0.99,1.1 -0.7,0 -1,-0.65 -1,-1.05 0,-0.25 0.4,-1.84 1.2,-2.89 l -16.79,0 c -0.85,0 -1.74,0 -1.74,-0.99 0,-1 0.89,-1 1.74,-1 z"
           id="path4598"
           inkscape:connector-curvature="0"
           style="fill:#000000;stroke-width:0" /><path
           d="m 473.43,408.79 0.06,-0.19 0.06,-0.19 0.07,-0.18 0.07,-0.17 0.09,-0.17 0.08,-0.17 0.1,-0.16 0.1,-0.15 0.1,-0.15 0.11,-0.15 0.12,-0.14 0.12,-0.13 0.13,-0.13 0.13,-0.13 0.14,-0.11 0.14,-0.12 0.15,-0.1 0.15,-0.1 0.16,-0.09 0.16,-0.09 0.16,-0.08 0.17,-0.07 0.17,-0.07 0.18,-0.06 0.18,-0.06 0.18,-0.04 0.19,-0.04 0.18,-0.04 0.2,-0.02 0.19,-0.02 0.2,-0.01 0.2,-0.01 c 1.74,0 2.89,1.15 3.68,2.74 0.85,1.79 1.5,4.83 1.5,4.93 0,0.5 -0.45,0.5 -0.6,0.5 -0.5,0 -0.55,-0.2 -0.7,-0.89 -0.7,-2.8 -1.64,-6.18 -3.73,-6.18 -1.05,0 -1.55,0.65 -1.55,2.29 0,1.09 0.6,3.44 1,5.18 l 1.39,5.38 c 0.16,0.75 0.65,2.64 0.85,3.39 0.25,1.14 0.75,3.03 0.75,3.33 0,0.9 -0.7,1.35 -1.44,1.35 -0.25,0 -1.55,-0.05 -1.95,-1.74 -0.95,-3.64 -3.14,-12.36 -3.73,-15 -0.05,-0.2 -2.05,-4.18 -5.68,-4.18 -2.59,0 -3.09,2.24 -3.09,4.08 0,2.79 1.39,6.73 2.69,10.16 0.6,1.5 0.85,2.19 0.85,3.14 0,2.25 -1.6,4.09 -4.09,4.09 -4.73,0 -6.57,-7.23 -6.57,-7.67 0,-0.5 0.49,-0.5 0.59,-0.5 0.5,0 0.55,0.1 0.8,0.9 1.25,4.33 3.14,6.17 5.03,6.17 0.45,0 1.25,-0.05 1.25,-1.64 0,-1.2 -0.55,-2.64 -0.85,-3.39 -1.84,-4.93 -2.89,-8.02 -2.89,-10.46 0,-4.73 3.44,-5.98 6.13,-5.98 3.28,0 5.08,2.25 5.92,3.34 z"
           id="path4600"
           inkscape:connector-curvature="0"
           style="fill:#000000;stroke-width:0" /></g>    </g>
    <g
       id="g4640"
       transform="translate(200,254.28571)">
      <g
         word-spacing="normal"
         letter-spacing="normal"
         font-size-adjust="none"
         font-stretch="normal"
         font-weight="normal"
         font-variant="normal"
         font-style="normal"
         fill-rule="even-odd"
         stroke-miterlimit="10.433"
         xml:space="preserve"
         transform="matrix(1.0629921,0,0,-1.0629921,-186.02362,789.27165)"
         id="g4642"
         style="font-style:normal;font-variant:normal;font-weight:normal;font-stretch:normal;letter-spacing:normal;word-spacing:normal;text-anchor:start;fill:none;stroke:#000000;stroke-linecap:butt;stroke-linejoin:miter;stroke-miterlimit:10.43299961;stroke-dasharray:none;stroke-dashoffset:0;stroke-opacity:1"><path
           id="path4644"
           d="m 480.75,435.64 -0.07,-0.06 -0.07,-0.07 -0.08,-0.07 -0.08,-0.07 -0.09,-0.08 -0.09,-0.08 -0.09,-0.09 -0.09,-0.09 -0.1,-0.09 -0.09,-0.09 -0.2,-0.19 -0.19,-0.19 -0.19,-0.21 -0.09,-0.1 -0.09,-0.1 -0.09,-0.1 -0.08,-0.11 -0.08,-0.1 -0.08,-0.1 -0.07,-0.1 -0.06,-0.1 -0.06,-0.1 -0.05,-0.1 -0.05,-0.1 -0.04,-0.09 -0.03,-0.1 -0.02,-0.09 -0.02,-0.09 0,-0.08 c 0,-0.5 0.5,-1 1,-1 0.44,0 0.69,0.35 0.94,0.65 0.6,0.75 1.74,2.14 3.94,3.24 0.35,0.2 0.84,0.45 0.84,1.05 0,0.49 -0.34,0.74 -0.69,0.99 -1.1,0.75 -1.65,1.64 -2.05,2.84 -0.1,0.45 -0.3,1.1 -0.99,1.1 -0.7,0 -1,-0.65 -1,-1.05 0,-0.25 0.4,-1.84 1.2,-2.89 l -16.79,0 c -0.85,0 -1.74,0 -1.74,-0.99 0,-1 0.89,-1 1.74,-1 z"
           inkscape:connector-curvature="0"
           style="fill:#000000;stroke-width:0" /><path
           id="path4646"
           d="m 479.31,424.53 0,0.13 0,0.12 -0.01,0.12 0,0.11 -0.01,0.12 -0.01,0.11 -0.01,0.11 -0.02,0.1 -0.03,0.21 -0.03,0.19 -0.05,0.18 -0.04,0.18 -0.06,0.16 -0.06,0.16 -0.06,0.15 -0.07,0.13 -0.07,0.13 -0.07,0.12 -0.08,0.12 -0.08,0.1 -0.08,0.1 -0.09,0.09 -0.08,0.08 -0.09,0.07 -0.09,0.07 -0.09,0.06 -0.1,0.05 -0.09,0.05 -0.09,0.04 -0.09,0.03 -0.1,0.03 -0.09,0.03 -0.09,0.01 -0.09,0.02 -0.08,0 -0.09,0.01 c -1.24,0 -2.44,-1.3 -2.44,-2.4 0,-0.64 0.25,-0.94 0.8,-1.49 1.04,-0.99 1.69,-2.29 1.69,-4.08 0,-2.09 -3.04,-13.5 -8.87,-13.5 -2.54,0 -3.68,1.74 -3.68,4.33 0,2.79 1.34,6.43 2.89,10.56 0.35,0.85 0.6,1.54 0.6,2.49 0,2.25 -1.6,4.09 -4.09,4.09 -4.68,0 -6.57,-7.23 -6.57,-7.67 0,-0.5 0.49,-0.5 0.59,-0.5 0.5,0 0.55,0.1 0.8,0.9 1.45,5.03 3.59,6.17 5.03,6.17 0.4,0 1.25,0 1.25,-1.59 0,-1.25 -0.5,-2.59 -0.85,-3.49 -2.19,-5.78 -2.84,-8.07 -2.84,-10.21 0,-5.38 4.38,-6.18 6.68,-6.18 8.36,0 11.2,16.49 11.2,19.08 z"
           inkscape:connector-curvature="0"
           style="fill:#000000;stroke-width:0" /></g>    </g>
    <g
       id="g4694"
       transform="translate(37.142857,171.42857)">
      <g
         id="g4696"
         transform="matrix(1.0629921,0,0,-1.0629921,-186.02362,789.27165)"
         xml:space="preserve"
         stroke-miterlimit="10.433"
         fill-rule="even-odd"
         font-style="normal"
         font-variant="normal"
         font-weight="normal"
         font-stretch="normal"
         font-size-adjust="none"
         letter-spacing="normal"
         word-spacing="normal"
         style="font-style:normal;font-variant:normal;font-weight:normal;font-stretch:normal;letter-spacing:normal;word-spacing:normal;text-anchor:start;fill:none;stroke:#000000;stroke-linecap:butt;stroke-linejoin:miter;stroke-miterlimit:10.43299961;stroke-dasharray:none;stroke-dashoffset:0;stroke-opacity:1"><path
           d="m 488.75,435.64 -0.07,-0.06 -0.07,-0.07 -0.08,-0.07 -0.08,-0.07 -0.09,-0.08 -0.09,-0.08 -0.09,-0.09 -0.09,-0.09 -0.1,-0.09 -0.09,-0.09 -0.2,-0.19 -0.19,-0.19 -0.19,-0.21 -0.09,-0.1 -0.09,-0.1 -0.09,-0.1 -0.08,-0.11 -0.08,-0.1 -0.08,-0.1 -0.07,-0.1 -0.06,-0.1 -0.06,-0.1 -0.05,-0.1 -0.05,-0.1 -0.04,-0.09 -0.03,-0.1 -0.02,-0.09 -0.02,-0.09 0,-0.08 c 0,-0.5 0.5,-1 1,-1 0.44,0 0.69,0.35 0.94,0.65 0.6,0.75 1.74,2.14 3.94,3.24 0.35,0.2 0.84,0.45 0.84,1.05 0,0.49 -0.34,0.74 -0.69,0.99 -1.1,0.75 -1.65,1.64 -2.05,2.84 -0.1,0.45 -0.3,1.1 -0.99,1.1 -0.7,0 -1,-0.65 -1,-1.05 0,-0.25 0.4,-1.84 1.2,-2.89 l -16.79,0 c -0.85,0 -1.74,0 -1.74,-0.99 0,-1 0.89,-1 1.74,-1 z"
           id="path4698"
           inkscape:connector-curvature="0"
           style="fill:#000000;stroke-width:0" /><path
           d="m 479.02,422.89 0.02,0.1 0.02,0.11 0.03,0.11 0.03,0.12 0.03,0.12 0.03,0.12 0.06,0.24 0.06,0.25 0.06,0.25 0.06,0.25 0.06,0.24 0.03,0.12 0.03,0.12 0.02,0.11 0.03,0.11 0.03,0.1 0.02,0.1 0.02,0.1 0.02,0.09 0.02,0.08 0.01,0.08 0.02,0.07 0.01,0.06 0.01,0.06 0.01,0.05 0,0.04 0,0.03 c 0,0.9 -0.7,1.35 -1.44,1.35 -0.6,0 -1.5,-0.4 -1.85,-1.4 -0.15,-0.34 -2.49,-9.86 -2.84,-11.15 -0.34,-1.5 -0.45,-2.39 -0.45,-3.29 0,-0.55 0,-0.65 0.05,-0.9 -1.14,-2.64 -2.64,-4.18 -4.58,-4.18 -3.98,0 -3.98,3.68 -3.98,4.53 0,1.6 0.25,3.54 2.59,9.67 0.54,1.49 0.85,2.19 0.85,3.18 0,2.25 -1.65,4.09 -4.09,4.09 -4.73,0 -6.57,-7.23 -6.57,-7.67 0,-0.5 0.49,-0.5 0.59,-0.5 0.5,0 0.55,0.1 0.8,0.9 1.34,4.63 3.29,6.17 5.03,6.17 0.45,0 1.25,-0.05 1.25,-1.64 0,-1.25 -0.55,-2.64 -0.9,-3.49 -2.19,-5.88 -2.79,-8.17 -2.79,-10.06 0,-4.53 3.34,-6.28 7.07,-6.28 0.85,0 3.19,0 5.18,3.49 1.3,-3.19 4.73,-3.49 6.23,-3.49 3.73,0 5.93,3.14 7.22,6.13 1.7,3.88 3.29,10.56 3.29,12.95 0,2.74 -1.35,3.49 -2.19,3.49 -1.25,0 -2.49,-1.3 -2.49,-2.4 0,-0.64 0.3,-0.94 0.74,-1.34 0.56,-0.55 1.8,-1.84 1.8,-4.23 0,-1.69 -1.44,-6.58 -2.74,-9.12 -1.3,-2.64 -3.04,-4.38 -5.48,-4.38 -2.34,0 -3.68,1.49 -3.68,4.33 0,1.4 0.34,2.94 0.54,3.64 z"
           id="path4700"
           inkscape:connector-curvature="0"
           style="fill:#000000;stroke-width:0" /></g>    </g>
    <g
       id="g4756"
       transform="translate(-177.14285,51.428571)">
      <g
         word-spacing="normal"
         letter-spacing="normal"
         font-size-adjust="none"
         font-stretch="normal"
         font-weight="normal"
         font-variant="normal"
         font-style="normal"
         fill-rule="even-odd"
         stroke-miterlimit="10.433"
         xml:space="preserve"
         transform="matrix(1.0629921,0,0,-1.0629921,-186.02362,789.27165)"
         id="g4758"
         style="font-style:normal;font-variant:normal;font-weight:normal;font-stretch:normal;letter-spacing:normal;word-spacing:normal;text-anchor:start;fill:none;stroke:#000000;stroke-linecap:butt;stroke-linejoin:miter;stroke-miterlimit:10.43299961;stroke-dasharray:none;stroke-dashoffset:0;stroke-opacity:1"><path
           id="path4760"
           d="m 481.75,435.64 -0.07,-0.06 -0.07,-0.07 -0.08,-0.07 -0.08,-0.07 -0.09,-0.08 -0.09,-0.08 -0.09,-0.09 -0.09,-0.09 -0.1,-0.09 -0.09,-0.09 -0.2,-0.19 -0.19,-0.19 -0.19,-0.21 -0.09,-0.1 -0.09,-0.1 -0.09,-0.1 -0.08,-0.11 -0.08,-0.1 -0.08,-0.1 -0.07,-0.1 -0.06,-0.1 -0.06,-0.1 -0.05,-0.1 -0.05,-0.1 -0.04,-0.09 -0.03,-0.1 -0.02,-0.09 -0.02,-0.09 0,-0.08 c 0,-0.5 0.5,-1 1,-1 0.44,0 0.69,0.35 0.94,0.65 0.6,0.75 1.74,2.14 3.94,3.24 0.35,0.2 0.84,0.45 0.84,1.05 0,0.49 -0.34,0.74 -0.69,0.99 -1.1,0.75 -1.65,1.64 -2.05,2.84 -0.1,0.45 -0.3,1.1 -0.99,1.1 -0.7,0 -1,-0.65 -1,-1.05 0,-0.25 0.4,-1.84 1.2,-2.89 l -16.79,0 c -0.85,0 -1.74,0 -1.74,-0.99 0,-1 0.89,-1 1.74,-1 z"
           inkscape:connector-curvature="0"
           style="fill:#000000;stroke-width:0" /><path
           id="path4762"
           d="m 473.43,408.79 0.06,-0.19 0.06,-0.19 0.07,-0.18 0.07,-0.17 0.09,-0.17 0.08,-0.17 0.1,-0.16 0.1,-0.15 0.1,-0.15 0.11,-0.15 0.12,-0.14 0.12,-0.13 0.13,-0.13 0.13,-0.13 0.14,-0.11 0.14,-0.12 0.15,-0.1 0.15,-0.1 0.16,-0.09 0.16,-0.09 0.16,-0.08 0.17,-0.07 0.17,-0.07 0.18,-0.06 0.18,-0.06 0.18,-0.04 0.19,-0.04 0.18,-0.04 0.2,-0.02 0.19,-0.02 0.2,-0.01 0.2,-0.01 c 1.74,0 2.89,1.15 3.68,2.74 0.85,1.79 1.5,4.83 1.5,4.93 0,0.5 -0.45,0.5 -0.6,0.5 -0.5,0 -0.55,-0.2 -0.7,-0.89 -0.7,-2.8 -1.64,-6.18 -3.73,-6.18 -1.05,0 -1.55,0.65 -1.55,2.29 0,1.09 0.6,3.44 1,5.18 l 1.39,5.38 c 0.16,0.75 0.65,2.64 0.85,3.39 0.25,1.14 0.75,3.03 0.75,3.33 0,0.9 -0.7,1.35 -1.44,1.35 -0.25,0 -1.55,-0.05 -1.95,-1.74 -0.95,-3.64 -3.14,-12.36 -3.73,-15 -0.05,-0.2 -2.05,-4.18 -5.68,-4.18 -2.59,0 -3.09,2.24 -3.09,4.08 0,2.79 1.39,6.73 2.69,10.16 0.6,1.5 0.85,2.19 0.85,3.14 0,2.25 -1.6,4.09 -4.09,4.09 -4.73,0 -6.57,-7.23 -6.57,-7.67 0,-0.5 0.49,-0.5 0.59,-0.5 0.5,0 0.55,0.1 0.8,0.9 1.25,4.33 3.14,6.17 5.03,6.17 0.45,0 1.25,-0.05 1.25,-1.64 0,-1.2 -0.55,-2.64 -0.85,-3.39 -1.84,-4.93 -2.89,-8.02 -2.89,-10.46 0,-4.73 3.44,-5.98 6.13,-5.98 3.28,0 5.08,2.25 5.92,3.34 z"
           inkscape:connector-curvature="0"
           style="fill:#000000;stroke-width:0" /><path
           id="path4764"
           d="m 514.38,419.85 -9.97,9.91 c -0.59,0.6 -0.69,0.7 -1.09,0.7 -0.5,0 -1,-0.45 -1,-1 0,-0.35 0.1,-0.45 0.65,-1 l 9.96,-10.01 -9.96,-10.01 c -0.55,-0.55 -0.65,-0.65 -0.65,-0.99 0,-0.55 0.5,-1 1,-1 0.4,0 0.5,0.1 1.09,0.69 l 9.92,9.92 10.31,-10.31 c 0.1,-0.05 0.45,-0.3 0.75,-0.3 0.59,0 0.99,0.45 0.99,1 0,0.09 0,0.29 -0.15,0.54 -0.05,0.1 -7.97,7.92 -10.46,10.46 l 9.12,9.12 c 0.25,0.3 0.99,0.95 1.24,1.24 0.05,0.1 0.25,0.3 0.25,0.65 0,0.55 -0.4,1 -0.99,1 -0.4,0 -0.6,-0.2 -1.15,-0.75 z"
           inkscape:connector-curvature="0"
           style="fill:#000000;stroke-width:0" /><path
           id="path4766"
           d="m 569.75,435.64 -0.07,-0.06 -0.07,-0.07 -0.08,-0.07 -0.08,-0.07 -0.09,-0.08 -0.09,-0.08 -0.09,-0.09 -0.09,-0.09 -0.1,-0.09 -0.09,-0.09 -0.2,-0.19 -0.19,-0.19 -0.19,-0.21 -0.09,-0.1 -0.09,-0.1 -0.09,-0.1 -0.08,-0.11 -0.08,-0.1 -0.08,-0.1 -0.07,-0.1 -0.06,-0.1 -0.06,-0.1 -0.05,-0.1 -0.05,-0.1 -0.04,-0.09 -0.03,-0.1 -0.02,-0.09 -0.02,-0.09 0,-0.08 c 0,-0.5 0.5,-1 1,-1 0.44,0 0.69,0.35 0.94,0.65 0.6,0.75 1.74,2.14 3.93,3.24 0.36,0.2 0.85,0.45 0.85,1.05 0,0.49 -0.35,0.74 -0.69,0.99 -1.1,0.75 -1.65,1.64 -2.04,2.84 -0.11,0.45 -0.31,1.1 -1,1.1 -0.7,0 -1,-0.65 -1,-1.05 0,-0.25 0.4,-1.84 1.2,-2.89 l -16.79,0 c -0.85,0 -1.74,0 -1.74,-0.99 0,-1 0.89,-1 1.74,-1 z"
           inkscape:connector-curvature="0"
           style="fill:#000000;stroke-width:0" /><path
           id="path4768"
           d="m 568.31,424.53 0,0.13 0,0.12 -0.01,0.12 0,0.11 -0.01,0.12 -0.01,0.11 -0.01,0.11 -0.02,0.1 -0.03,0.21 -0.03,0.19 -0.05,0.18 -0.04,0.18 -0.06,0.16 -0.06,0.16 -0.06,0.15 -0.07,0.13 -0.07,0.13 -0.07,0.12 -0.08,0.12 -0.08,0.1 -0.08,0.1 -0.09,0.09 -0.08,0.08 -0.09,0.07 -0.09,0.07 -0.09,0.06 -0.1,0.05 -0.09,0.05 -0.09,0.04 -0.09,0.03 -0.1,0.03 -0.09,0.03 -0.09,0.01 -0.09,0.02 -0.08,0 -0.09,0.01 c -1.24,0 -2.44,-1.3 -2.44,-2.4 0,-0.64 0.25,-0.94 0.8,-1.49 1.04,-0.99 1.69,-2.29 1.69,-4.08 0,-2.09 -3.04,-13.5 -8.87,-13.5 -2.54,0 -3.68,1.74 -3.68,4.33 0,2.79 1.34,6.43 2.89,10.56 0.34,0.85 0.59,1.54 0.59,2.49 0,2.25 -1.59,4.09 -4.08,4.09 -4.68,0 -6.57,-7.23 -6.57,-7.67 0,-0.5 0.49,-0.5 0.59,-0.5 0.5,0 0.55,0.1 0.8,0.9 1.44,5.03 3.59,6.17 5.03,6.17 0.4,0 1.25,0 1.25,-1.59 0,-1.25 -0.5,-2.59 -0.85,-3.49 -2.19,-5.78 -2.84,-8.07 -2.84,-10.21 0,-5.38 4.38,-6.18 6.67,-6.18 8.37,0 11.21,16.49 11.21,19.08 z"
           inkscape:connector-curvature="0"
           style="fill:#000000;stroke-width:0" /></g>    </g>
    <path
       style="fill:none;stroke:#0000e4;stroke-width:2.5;stroke-linecap:butt;stroke-linejoin:miter;stroke-miterlimit:4;stroke-dasharray:none;stroke-opacity:1;marker-end:"
       d="m 323.05276,484.04229 2.85714,268.57143"
       id="path4803"
       inkscape:connector-curvature="0" />
    <g
       transform="matrix(1.6530885,0,0,1.6530885,10.283843,165.48783)"
       id="g4840">
      <g
         style="font-style:normal;font-variant:normal;font-weight:normal;font-stretch:normal;letter-spacing:normal;word-spacing:normal;text-anchor:start;fill:none;stroke:#000000;stroke-linecap:butt;stroke-linejoin:miter;stroke-miterlimit:10.43299961;stroke-dasharray:none;stroke-dashoffset:0;stroke-opacity:1"
         id="g4842"
         transform="matrix(0.71542393,0,0,-0.71542393,-125.19919,574.7785)"
         xml:space="preserve"
         stroke-miterlimit="10.433"
         fill-rule="even-odd"
         font-style="normal"
         font-variant="normal"
         font-weight="normal"
         font-stretch="normal"
         font-size-adjust="none"
         letter-spacing="normal"
         word-spacing="normal"><path
           style="fill:#000000;stroke-width:0"
           inkscape:connector-curvature="0"
           d="m 470.3,440.02 0,0.01 0,0 0,0.01 0,0.01 0,0.01 -0.01,0.01 0,0.02 0,0.02 0,0.02 -0.01,0.02 0,0.02 -0.01,0.02 -0.01,0.03 -0.01,0.02 -0.01,0.03 -0.01,0.02 -0.01,0.02 -0.02,0.03 -0.02,0.02 -0.02,0.03 -0.02,0.02 -0.01,0.01 -0.02,0.01 -0.01,0.01 -0.01,0.01 -0.02,0.01 -0.01,0.01 -0.02,0.01 -0.02,0.01 -0.01,0.01 -0.02,0.01 -0.02,0.01 -0.02,0 -0.02,0.01 -0.02,0.01 -0.02,0 -0.03,0.01 -0.02,0 -0.03,0.01 -0.02,0 -0.03,0 -0.02,0.01 -0.03,0 -0.03,0 -0.03,0 c -1.15,0 -4.78,-0.4 -6.08,-0.5 -0.4,-0.05 -0.95,-0.1 -0.95,-1 0,-0.59 0.45,-0.59 1.2,-0.59 2.39,0 2.49,-0.35 2.49,-0.85 l -0.15,-0.99 -7.22,-28.7 c -0.2,-0.69 -0.2,-0.8 -0.2,-1.09 0,-1.15 0.99,-1.4 1.44,-1.4 0.8,0 1.6,0.6 1.85,1.3 l 0.94,3.78 1.1,4.49 c 0.3,1.09 0.6,2.19 0.85,3.34 0.1,0.29 0.49,1.94 0.54,2.23 0.15,0.45 1.7,3.24 3.39,4.59 1.1,0.8 2.64,1.74 4.78,1.74 2.15,0 2.69,-1.69 2.69,-3.49 0,-2.68 -1.89,-8.11 -3.09,-11.15 -0.39,-1.15 -0.64,-1.75 -0.64,-2.74 0,-2.34 1.74,-4.09 4.08,-4.09 4.69,0 6.53,7.28 6.53,7.67 0,0.5 -0.45,0.5 -0.6,0.5 -0.5,0 -0.5,-0.15 -0.75,-0.89 -0.74,-2.64 -2.34,-6.18 -5.08,-6.18 -0.84,0 -1.19,0.5 -1.19,1.64 0,1.25 0.44,2.44 0.89,3.54 0.8,2.14 3.04,8.07 3.04,10.96 0,3.24 -1.99,5.33 -5.72,5.33 -3.15,0 -5.54,-1.55 -7.38,-3.84 z"
           id="path4844" /></g>    </g>
    <g
       id="g3315"
       transform="matrix(1.9254578,0,0,1.9254578,-118.86095,-32.05842)">
      <g
         word-spacing="normal"
         letter-spacing="normal"
         font-size-adjust="none"
         font-stretch="normal"
         font-weight="normal"
         font-variant="normal"
         font-style="normal"
         fill-rule="even-odd"
         stroke-miterlimit="10.433"
         xml:space="preserve"
         transform="matrix(0.71542393,0,0,-0.71542393,-125.19919,574.7785)"
         id="g3317"
         style="font-style:normal;font-variant:normal;font-weight:normal;font-stretch:normal;letter-spacing:normal;word-spacing:normal;text-anchor:start;fill:none;stroke:#000000;stroke-width:0.51935697;stroke-linecap:butt;stroke-linejoin:miter;stroke-miterlimit:10.43299961;stroke-dasharray:none;stroke-dashoffset:0;stroke-opacity:1"><path
           id="path3319"
           d="m 478.66,430.91 0,0.31 -0.01,0.34 -0.01,0.36 -0.02,0.37 -0.03,0.38 -0.04,0.4 -0.05,0.41 -0.06,0.41 -0.06,0.42 -0.08,0.42 -0.09,0.43 -0.1,0.42 -0.11,0.43 -0.13,0.42 -0.13,0.41 -0.16,0.4 -0.17,0.4 -0.18,0.39 -0.2,0.37 -0.22,0.35 -0.23,0.34 -0.25,0.32 -0.27,0.3 -0.29,0.27 -0.31,0.25 -0.17,0.12 -0.16,0.11 -0.18,0.1 -0.17,0.09 -0.19,0.09 -0.19,0.07 -0.19,0.07 -0.2,0.06 -0.21,0.06 -0.21,0.04 -0.21,0.03 -0.23,0.03 -0.23,0.01 -0.23,0.01 -0.05,-1.1 c 2.44,0 2.74,-3.18 2.74,-6.02 0,-2.45 -0.4,-4.99 -1.59,-9.92 l -10.42,0 c 0.85,3.19 1.84,7.17 3.84,10.71 1.34,2.44 3.18,5.23 5.43,5.23 l 0.05,1.1 c -6.93,0 -14.6,-14.05 -14.6,-25.46 0,-4.68 1.45,-10.21 5.98,-10.21 l 0,1.1 c -1.64,0 -2.69,1.44 -2.69,6.07 0,2.1 0.3,4.99 1.59,9.87 l 10.37,0 c -0.55,-2.29 -1.6,-6.53 -3.49,-10.11 -1.74,-3.39 -3.64,-5.83 -5.78,-5.83 l 0,-1.1 c 7.02,0 14.59,14.3 14.59,25.46 z"
           inkscape:connector-curvature="0"
           style="fill:#000000;stroke-width:0" /></g>    </g>
  </g>
</svg>
